<svg xmlns="http://www.w3.org/2000/svg" viewBox="0 0 750 500"><g id="freepik--background-complete--inject-39"><path d="M625.48,289.35s-11.32-7.9-16.51-6.46-11.87,8.73-11.87,8.73,13.19-3.79,17.16-3A73.91,73.91,0,0,0,625.48,289.35Z" style="fill:#e0e0e0"></path><path d="M629.29,292.2c-1.65,3.73-4.49,6.84-6.09,10.59a17.89,17.89,0,0,0-.07,13.6,24.52,24.52,0,0,0,5.77-11.58,63.67,63.67,0,0,0,1.32-12.1Z" style="fill:#e0e0e0"></path><path d="M627.55,291.23c.52-1.53-12.29-.86-16.38,4.08s-8.16,10.31-4.72,22.78c0,0,7.73-13.51,7.73-13.31S626.53,294.24,627.55,291.23Z" style="fill:#e0e0e0"></path><path d="M627.65,291.07c-1.19.46,10.45,4,15.83,4.44a16.4,16.4,0,0,0,8.62-1.36S644.29,284.62,627.65,291.07Z" style="fill:#e0e0e0"></path><path d="M686.46,340.12s5.6-2.28,7.18-.7,8.06,10.15,14.19,10.68c0,0-5.61-11.91-10.69-13.84C693.8,335,686.46,340.12,686.46,340.12Z" style="fill:#e0e0e0"></path><path d="M687.9,339.47s-.22-4.2-2.33-6.42-9.74-3.72-9.74-3.72,2.75,4.4,5.56,6.55A31.6,31.6,0,0,0,687.9,339.47Z" style="fill:#e0e0e0"></path><path d="M687.89,339.23s-3.9-.06-6.66,4.82a39.69,39.69,0,0,0-4,10.6c.23-.4,7.37-3.52,9.24-7.47A16.44,16.44,0,0,0,687.89,339.23Z" style="fill:#e0e0e0"></path><path d="M688.78,339.23s.7,9.29,2.28,10.87,3.85,7.36,3.85,7.36,3.51-8.41,1.58-12.44S688.78,339.23,688.78,339.23Z" style="fill:#e0e0e0"></path><path d="M654.74,357.18c-.45.67-9.44,7.64-10.79,11s-.22,8.54,0,10.12,8.09-2,9.44-8.1A70,70,0,0,0,654.74,357.18Z" style="fill:#e0e0e0"></path><path d="M656.49,352c0,1.13.14,12.14,3,16a51.55,51.55,0,0,0,8.26,7.93s1.9-13.93-2.11-18.23A21.75,21.75,0,0,0,656.49,352Z" style="fill:#e0e0e0"></path><path d="M655.17,353.85c-.66-.16-8.79-.93-12.66,3.7a43.21,43.21,0,0,0-6,9.89s12.3-6.1,14.55-8.8S655.17,353.85,655.17,353.85Z" style="fill:#e0e0e0"></path><path d="M660.76,348.81a6.39,6.39,0,0,1,7-.18c3.65,2.27,9.73,11.11,9.73,11.11s-7.43-.48-11.35-4.2A25.79,25.79,0,0,1,660.76,348.81Z" style="fill:#e0e0e0"></path><path d="M655.48,350.17s-4.72-4-8.32-4.9S633,347,633,347a18.92,18.92,0,0,0,12.25,3.16C652.55,349.55,655.48,350.17,655.48,350.17Z" style="fill:#e0e0e0"></path><path d="M639.82,391s-3.37,6.52,0,10.12S645,411.9,645,411.9s5.82-5.62,2.9-11.92A20.48,20.48,0,0,0,639.82,391Z" style="fill:#e0e0e0"></path><path d="M634.41,391.13c-.9.45-6.74,8.32-7.19,13.94s-.9,15.29,0,14.61,7.42-6.74,9.22-12.59S634.41,391.13,634.41,391.13Z" style="fill:#e0e0e0"></path><path d="M632.22,390.52c-.9.22-9.45-1.35-14.17,4.72s-8.31,14.83-8.31,14.83,12.36-6.32,15.28-9.79S632.22,390.52,632.22,390.52Z" style="fill:#e0e0e0"></path><path d="M680.46,379.73s-2.57,7.64,0,14.38A65.18,65.18,0,0,0,686,405.35s3.8-13.48,1.34-17.08S680.46,379.73,680.46,379.73Z" style="fill:#e0e0e0"></path><path d="M681.87,378.92c.91.84,11.44,16,18.61,17.32s1.12-.57,1.12-.57-2.26-10.2-5.47-14.42S681.87,378.92,681.87,378.92Z" style="fill:#e0e0e0"></path><path d="M680.26,378.65s7.78-5.4,10.82-6.77,13.1.43,13.1.43S692,378.67,689,378s-8.77,1.93-8.77,1.93" style="fill:#e0e0e0"></path><path d="M707.31,305.06s-6.75,7.14-5.85,12.72a65.74,65.74,0,0,0,2.88,10.94l3-9.82Z" style="fill:#e0e0e0"></path><path d="M708.22,303.63s-1.56,10.94,1.56,15.4,7.37,13,7.81,12.28,6.92-6.47,2.24-14.73A42.41,42.41,0,0,0,708.22,303.63Z" style="fill:#e0e0e0"></path><path d="M706,305.57s-10.77-3.13-12.32,2l-2.89,9.6a42.38,42.38,0,0,1,7.6-6.27A79.63,79.63,0,0,0,706,305.57Z" style="fill:#e0e0e0"></path><path d="M657.66,308.46s.32-.29.88-.76c2.54-2.17,10-8.14,13.72-7.23a79.42,79.42,0,0,1,10.86,3.95S666.85,312.88,657.66,308.46Z" style="fill:#e0e0e0"></path><path d="M659.84,308.54c0-.82-4.89-2.12-9.22,2.34s-5,7.21-5,7.21S659.54,316.24,659.84,308.54Z" style="fill:#e0e0e0"></path><path d="M659.07,309.44s-4.94,5.69-1.15,11.27S665,331.65,665,331.65a18.06,18.06,0,0,0,0-11.11A39.64,39.64,0,0,0,659.07,309.44Z" style="fill:#e0e0e0"></path><path d="M677.58,323.6c-.23-1.35,1.57-12.5-13.17-11.4h-1.36s7.06,11.39,8.67,15a15.45,15.45,0,0,0,4.57,6.25C678,335,677.8,325,677.58,323.6Z" style="fill:#e0e0e0"></path><path d="M680.43,379.27a12.81,12.81,0,0,0-3.5-9.52c-.23-.24-.55-.48-.85-.35a.81.81,0,0,0-.36.53,8.13,8.13,0,0,0,.83,6.12,20.42,20.42,0,0,0,4,4.91" style="fill:#e0e0e0"></path><path d="M638.87,389.55a25.15,25.15,0,0,0-12-10.94,1.75,1.75,0,0,0-1-.2,1.31,1.31,0,0,0-.9,1.19,4.28,4.28,0,0,0,1.14,3,20.91,20.91,0,0,0,13.27,7.94" style="fill:#e0e0e0"></path><path d="M698,373.09c0,.05-.76,0-2.11.21a23.64,23.64,0,0,0-5.57,1.43,32.13,32.13,0,0,0-7.42,4.19,76.7,76.7,0,0,0-7.85,7c-5.35,5.21-10.08,10.05-13.35,13.69-1.64,1.81-2.94,3.31-3.83,4.34l-1,1.19c-.24.27-.37.41-.38.39a1.93,1.93,0,0,1,.3-.46c.22-.29.53-.71,1-1.25.85-1.08,2.1-2.61,3.71-4.47,3.21-3.71,7.9-8.6,13.26-13.81a72.51,72.51,0,0,1,7.93-7,30.94,30.94,0,0,1,7.58-4.14,21.64,21.64,0,0,1,5.67-1.29c.69,0,1.22-.06,1.59,0A1.84,1.84,0,0,1,698,373.09Z" style="fill:#e0e0e0"></path><path d="M656.12,402.26c-.09.06-1-1.46-2.88-3.5a24.36,24.36,0,0,0-19.61-7.7c-2.79.19-4.47.7-4.5.6a5.39,5.39,0,0,1,1.17-.39,20.07,20.07,0,0,1,3.3-.59,23.42,23.42,0,0,1,19.92,7.82,20.43,20.43,0,0,1,2,2.68A4.36,4.36,0,0,1,656.12,402.26Z" style="fill:#e0e0e0"></path><path d="M659,308.38a1.93,1.93,0,0,1,0,.32c0,.24,0,.55-.08.94-.09.86-.21,2.07-.36,3.6-.31,3.13-.77,7.65-1.27,13.25-1,11.18-2.17,26.68-2.14,43.81s1.25,32.64,2.12,43.83c.46,5.58.83,10.1,1.08,13.27.12,1.54.22,2.74.28,3.61q0,.57.06.93a1.37,1.37,0,0,1,0,.33,2.11,2.11,0,0,1-.05-.32l-.11-.94c-.09-.85-.22-2.06-.38-3.59-.32-3.13-.76-7.66-1.25-13.25-1-11.2-2.23-26.7-2.29-43.87s1.21-32.67,2.3-43.85c.55-5.59,1.06-10.11,1.44-13.23.2-1.53.35-2.73.46-3.59.06-.39.1-.69.13-.93A1.76,1.76,0,0,1,659,308.38Z" style="fill:#e0e0e0"></path><path d="M692.64,338.55a8.85,8.85,0,0,1-1.57.24c-1,.11-2.48.31-4.27.59a79.83,79.83,0,0,0-26.67,9.34c-1.58.9-2.84,1.66-3.7,2.2a7.57,7.57,0,0,1-1.38.79,9.25,9.25,0,0,1,1.26-1c.83-.6,2.07-1.41,3.63-2.35a71,71,0,0,1,26.8-9.39c1.81-.24,3.29-.38,4.31-.43A10.71,10.71,0,0,1,692.64,338.55Z" style="fill:#e0e0e0"></path><path d="M656.24,333.57a2.3,2.3,0,0,1-.14-.6l-.3-1.73a26.18,26.18,0,0,0-.55-2.72,36.41,36.41,0,0,0-.93-3.55c-.2-.65-.42-1.33-.64-2s-.54-1.42-.83-2.16a50,50,0,0,0-2.1-4.65,60.61,60.61,0,0,0-6.41-9.75,75.76,75.76,0,0,0-15.71-14.23c-1.1-.8-2.17-1.42-3.07-2s-1.71-1.07-2.37-1.46l-1.5-.91a2.79,2.79,0,0,1-.51-.35,2.21,2.21,0,0,1,.56.25l1.56.83c.67.36,1.5.81,2.42,1.38s2,1.18,3.12,2A71.7,71.7,0,0,1,644.75,306a59.61,59.61,0,0,1,6.44,9.86,50.14,50.14,0,0,1,2.08,4.71c.27.76.59,1.47.8,2.19s.42,1.41.62,2.07c.43,1.3.61,2.53.86,3.59a21.55,21.55,0,0,1,.45,2.75c.08.71.15,1.29.2,1.75A2.17,2.17,0,0,1,656.24,333.57Z" style="fill:#e0e0e0"></path><path d="M709,304.54a2.13,2.13,0,0,1-.56.25l-1.65.63c-1.44.52-3.52,1.31-6,2.32a175.56,175.56,0,0,0-37.37,20.56c-2.21,1.6-4,2.93-5.2,3.87l-1.41,1.06a2.15,2.15,0,0,1-.51.34,2.7,2.7,0,0,1,.45-.42L658,332c1.17-1,2.92-2.37,5.11-4a156.57,156.57,0,0,1,37.45-20.61c2.56-1,4.65-1.71,6.12-2.17l1.68-.53A4,4,0,0,1,709,304.54Z" style="fill:#e0e0e0"></path><polygon points="677.86 482.56 635.51 482.56 631.09 430.83 682.82 430.83 677.86 482.56" style="fill:#e0e0e0"></polygon><rect x="627.81" y="430.83" width="58.45" height="7.95" style="fill:#e0e0e0"></rect><path d="M685.88,438.8c0,.15-13.07.27-29.19.27s-29.19-.12-29.19-.27,13.07-.27,29.19-.27S685.88,438.65,685.88,438.8Z" style="fill:#ebebeb"></path><rect x="504.07" y="255.94" width="45.08" height="11.92" style="fill:#fafafa"></rect><path d="M530.09,280.42a2,2,0,0,1,0-.22l0-.61q0-.84,0-2.34c0-2.06,0-5-.08-8.75l.14.14-45.07.09c.1-.11-.24.22.22-.23h0v11.9l-.23-.22,32.13.1,9.48.06,2.56,0,.67,0h.24l-.21,0h-.64l-2.52,0-9.43.06-32.28.11h-.22v-.23c0-1.92,0-3.87,0-5.86v-6h0c.46-.46.13-.13.24-.23l45.07.09h.14v.14c0,3.76-.06,6.75-.08,8.83q0,1.49,0,2.31c0,.25,0,.44,0,.59A1.14,1.14,0,0,1,530.09,280.42Z" style="fill:#e0e0e0"></path><path d="M717.75,110.81a1.66,1.66,0,0,1,0-.21V110c0-.56,0-1.34,0-2.34,0-2.06,0-5-.07-8.75l.13.14L673,99.12c.1-.1-.23.23.22-.23h0v11.9l-.23-.22,31.91.1,9.42.06,2.54,0,.67,0h.23s-.06,0-.2,0h-.64l-2.5,0-9.37.07L673,111h-.22V98.91h0c.46-.46.13-.13.24-.23l44.76.09h.14v.14c0,3.77-.06,6.75-.07,8.83,0,1,0,1.76,0,2.32,0,.24,0,.43,0,.58S717.76,110.82,717.75,110.81Z" style="fill:#e0e0e0"></path><path d="M386.62,366.38s0-.08,0-.22,0-.36,0-.61l0-2.35c0-2.05,0-5-.08-8.75l.14.14-45.07.09.23-.23h0v6.05c0,2,0,3.95,0,5.87l-.22-.23,32.12.11,9.48.06,2.57,0h.67l.23,0h-.2l-.65,0-2.51,0-9.43.06-32.28.1h-.23V354.46h0l.23-.23,45.07.09h.15v.14c0,3.77-.05,6.76-.07,8.84,0,1,0,1.76,0,2.31,0,.24,0,.44,0,.59S386.63,366.38,386.62,366.38Z" style="fill:#e0e0e0"></path><path d="M392.74,354.45a1,1,0,0,1,0-.22c0-.17,0-.38,0-.63,0-.59,0-1.39,0-2.4,0-2.09-.05-5-.09-8.67l.17.16-27.09.07.23-.23h0v6.12c0,2,0,3.93,0,5.78l-.22-.21,19.38.1,5.64.06,1.52,0,.55,0a2.9,2.9,0,0,1-.5,0l-1.47,0-5.6.06-19.52.1h-.22v-6c0-1,0-2,0-3v-3.09h0l.23-.23,27.09.06h.16v.17c0,3.67-.07,6.66-.09,8.77,0,1,0,1.78,0,2.36A7.28,7.28,0,0,1,392.74,354.45Z" style="fill:#e0e0e0"></path><rect x="88.42" y="36.66" width="140.63" height="252.63" style="fill:#ebebeb"></rect><rect x="94.04" y="43.99" width="127.94" height="237.78" style="fill:#fafafa"></rect><polygon points="235 291.57 229.05 289.29 229.05 32.38 235 32.38 235 291.57" style="fill:#e0e0e0"></polygon><rect x="94.04" y="112.39" width="130.72" height="2.53" style="fill:#e0e0e0"></rect><rect x="94.04" y="169.02" width="130.72" height="2.53" style="fill:#e0e0e0"></rect><rect x="94.04" y="225.64" width="130.72" height="2.53" style="fill:#e0e0e0"></rect><rect x="70.59" y="197.85" width="174.85" height="6.46" transform="translate(-43.07 359.09) rotate(-90)" style="fill:#e0e0e0"></rect><rect x="118.68" y="43.99" width="2.93" height="69.67" style="fill:#e0e0e0"></rect><rect x="143.93" y="43.99" width="2.93" height="69.67" style="fill:#e0e0e0"></rect><rect x="169.19" y="43.99" width="2.93" height="69.67" style="fill:#e0e0e0"></rect><rect x="194.45" y="43.99" width="2.93" height="69.67" style="fill:#e0e0e0"></rect><rect x="82.47" y="32.38" width="5.95" height="258.48" style="fill:#e0e0e0"></rect><rect x="82.47" y="29.77" width="152.52" height="6.89" style="fill:#e0e0e0"></rect><rect x="78.25" y="292.42" width="160.77" height="6.42" style="fill:#e0e0e0"></rect><polygon points="229.05 289.29 239.03 292.42 78.25 292.42 88.42 289.29 229.05 289.29" style="fill:#e0e0e0"></polygon><rect x="32.74" y="207.9" width="45.08" height="11.92" style="fill:#fafafa"></rect><path d="M58.76,232.38a1.87,1.87,0,0,1,0-.21c0-.16,0-.37,0-.62q0-.84,0-2.34c0-2.06-.05-5-.08-8.75l.14.14-45.07.09c.1-.11-.23.23.22-.23h0v11.9l-.23-.22,32.13.1,9.48.06,2.56,0,.67,0h.24s-.07,0-.21,0h-.64l-2.52,0L46,232.5l-32.28.11h-.22v-6.09c0-1,0-2,0-3v-3h0c.46-.46.13-.13.24-.23l45.07.09h.14v.14c0,3.76-.06,6.75-.08,8.83,0,1,0,1.76,0,2.32,0,.24,0,.43,0,.58S58.77,232.39,58.76,232.38Z" style="fill:#e0e0e0"></path><path d="M379.89,141.72a1.12,1.12,0,0,1,0-.22c0-.16,0-.36,0-.61,0-.56,0-1.35,0-2.35,0-2.06,0-5-.07-8.75l.14.14-45.08.09.23-.23h0v6c0,2,0,4,0,5.87l-.22-.23,32.12.1,9.48.07,2.57,0h.67l.24,0h-.21l-.65,0-2.51,0-9.43.06-32.28.1h-.23V129.81h0l.23-.23,45.08.09H380v.14c0,3.77-.06,6.76-.08,8.83,0,1,0,1.77,0,2.32,0,.24,0,.43,0,.59A1.31,1.31,0,0,1,379.89,141.72Z" style="fill:#e0e0e0"></path><path d="M386,129.79a1,1,0,0,1,0-.23c0-.17,0-.37,0-.63,0-.58,0-1.38,0-2.39,0-2.09-.05-5-.09-8.67l.17.16-27.08.07c-.21.2.27-.28.22-.23h0V124c0,2,0,3.93,0,5.78l-.22-.22,19.38.11,5.64.06,1.52,0,.55,0a2.83,2.83,0,0,1-.49,0l-1.48,0-5.59.06-19.53.1h-.21v-.22c0-1.85,0-3.79,0-5.78v-3c0-.51,0-1,0-1.54v-1.54h0c-.05,0,.44-.44.24-.23l27.08.06h.16v.17c0,3.67-.06,6.66-.09,8.77,0,1,0,1.78,0,2.36A7.51,7.51,0,0,1,386,129.79Z" style="fill:#e0e0e0"></path></g></svg>
