<svg xmlns="http://www.w3.org/2000/svg" viewBox="0 0 500 500"><g id="freepik--background-complete--inject-61"><path d="M414.79,392.65l13.36-.28,6.58-.11c2.19-.05,4.36,0,6.54-.06l-.44.45-.06-11.19.5.5L428,381.9c-4.41,0-8.82-.12-13.24-.17l.28-.27c0,1.83-.09,3.67-.14,5.54Zm0,0-.14-5.54c0-1.86-.11-3.75-.13-5.65v-.27h.27c4.42-.05,8.83-.16,13.24-.17l13.24-.06h.5v.5l0,11.19v.45h-.45c-2.23,0-4.47,0-6.69-.06l-6.66-.11Z" style="fill:#ebebeb"></path><path d="M429.56,406.76l13.36-.28,6.58-.11c2.19-.05,4.36,0,6.54-.06l-.44.45-.05-11.19.49.5L442.8,396c-4.41,0-8.82-.12-13.24-.17l.28-.27c0,1.83-.09,3.67-.13,5.54Zm0,0-.14-5.54c0-1.86-.11-3.75-.13-5.65v-.27h.27c4.42-.05,8.83-.16,13.24-.17l13.24-.06h.51v.5l-.05,11.19v.45H456c-2.23,0-4.46,0-6.69-.05l-6.66-.11Z" style="fill:#ebebeb"></path><rect x="400.02" y="395.57" width="26.48" height="11.19" transform="translate(826.52 802.33) rotate(180)" style="fill:#ebebeb"></rect><path d="M312.24,127l13.35-.27,6.58-.12c2.19,0,4.37,0,6.55-.05l-.45.44,0-11.19.5.5-13.24-.06c-4.42,0-8.83-.11-13.24-.16l.27-.28c0,1.84-.09,3.68-.13,5.54Zm0,0-.15-5.53c0-1.87-.11-3.76-.13-5.66v-.27h.28c4.41,0,8.82-.16,13.24-.16l13.24-.07h.5v.5L339.16,127v.45h-.44c-2.23,0-4.47,0-6.7-.06l-6.66-.11Z" style="fill:#ebebeb"></path><path d="M327,141.12l13.35-.27,6.58-.12c2.19,0,4.37,0,6.55,0l-.45.44L353,129.93l.5.5-13.24-.06c-4.41,0-8.83-.11-13.24-.16l.27-.28c0,1.84-.08,3.68-.13,5.54Zm0,0-.14-5.53c-.05-1.87-.12-3.76-.13-5.66v-.27H327c4.41,0,8.83-.16,13.24-.16l13.24-.07h.5v.5l-.06,11.19v.45h-.44c-2.23,0-4.47,0-6.7-.06l-6.66-.11Z" style="fill:#ebebeb"></path><rect x="297.46" y="129.93" width="26.48" height="11.19" transform="translate(621.41 271.06) rotate(180)" style="fill:#ebebeb"></rect><rect x="58.73" y="395.57" width="26.48" height="11.19" transform="translate(143.93 802.33) rotate(180)" style="fill:#ebebeb"></rect><rect x="58.73" y="43.24" width="26.48" height="11.19" transform="translate(143.93 97.68) rotate(180)" style="fill:#ebebeb"></rect><path d="M44,68.54l13.35-.28,6.58-.11c2.19,0,4.36,0,6.55-.05l-.45.44,0-11.19.5.5L57.2,57.79c-4.42,0-8.83-.11-13.24-.16l.27-.28c0,1.83-.09,3.68-.13,5.54Zm0,0L43.81,63c0-1.87-.11-3.76-.13-5.66v-.27H44c4.41,0,8.82-.16,13.24-.16l13.24-.07h.5v.5l-.06,11.19V69h-.44c-2.24,0-4.47,0-6.7-.06l-6.66-.11Z" style="fill:#ebebeb"></path><path d="M429.56,54.45l13.36-.28,6.58-.12c2.19,0,4.36,0,6.54,0l-.44.45-.05-11.19.49.49-13.24-.06c-4.41,0-8.82-.11-13.24-.16l.28-.27c0,1.83-.09,3.67-.13,5.53Zm0,0-.14-5.54c0-1.87-.11-3.76-.13-5.65V43h.27c4.42,0,8.83-.16,13.24-.16L456,42.76h.51v.51l-.05,11.19v.44H456c-2.23,0-4.46,0-6.69,0l-6.66-.12Z" style="fill:#ebebeb"></path><rect x="297.32" y="317.02" width="26.48" height="11.19" style="fill:#ebebeb"></rect><path d="M309,302.91l-13.36.28-6.58.11c-2.18.05-4.36,0-6.54.05l.44-.44.06,11.19-.5-.5,13.24.06c4.41,0,8.83.11,13.24.17l-.27.27c0-1.83.08-3.67.13-5.54Zm0,0,.14,5.54c.05,1.86.11,3.75.13,5.65v.27H309c-4.41.05-8.83.16-13.24.17l-13.24.06h-.5v-.5l.05-11.19v-.45h.44c2.23,0,4.47,0,6.69.06l6.66.11Z" style="fill:#ebebeb"></path><path d="M438.2,280.78H79.85V40.13H438.2Zm-357.35-1H437.2V41.13H80.85Z" style="fill:#ebebeb"></path><path d="M89.77,45.72a2.53,2.53,0,1,1-2.53-2.53A2.52,2.52,0,0,1,89.77,45.72Z" style="fill:#a6a6a6"></path><path d="M100.08,45.72a2.53,2.53,0,1,1-2.52-2.53A2.52,2.52,0,0,1,100.08,45.72Z" style="fill:#ebebeb"></path><path d="M110.4,45.72a2.53,2.53,0,1,1-2.53-2.53A2.52,2.52,0,0,1,110.4,45.72Z" style="fill:#6FA4CE"></path><rect x="80.35" y="50.17" width="357.35" height="1" style="fill:#ebebeb"></rect></g><g id="freepik--Floor--inject-61"><polygon points="459.98 449.36 407.49 449.6 354.99 449.69 250 449.86 145.01 449.69 92.52 449.6 40.02 449.36 92.52 449.11 145.01 449.03 250 448.86 354.99 449.03 407.49 449.12 459.98 449.36" style="fill:#263238"></polygon></g><g id="freepik--Character--inject-61"><path d="M80.88,449.31l160.79.69c39.08-30.69,43.12-76.15,15.24-103.71-16.88-16.67-38.3-13.31-58.71-16h-.06a60.28,60.28,0,0,1-20.69-6.07c-21-11.09-32.86-37.23-50.53-59.23q-3.3-4.14-6.92-8c-14.54-15.52-43.47-16-58.6,5.79C23,318.23,40.57,400.75,80.88,449.31Z" style="fill:#6FA4CE"></path><path d="M80.88,449.31l160.79.69c39.08-30.69,43.12-76.15,15.24-103.71-16.88-16.67-38.3-13.31-58.71-16h-.06a60.28,60.28,0,0,1-20.69-6.07c-21-11.09-32.86-37.23-50.53-59.23q-3.3-4.14-6.92-8c-14.54-15.52-43.47-16-58.6,5.79C23,318.23,40.57,400.75,80.88,449.31Z" style="fill:#020100;opacity:0.30000000000000004"></path><path d="M77.31,322.46c4.21,66,80.4,90.6,128,70.83,41.37-17.18,27.83-56.4-7.09-63h-.06a60.28,60.28,0,0,1-20.69-6.07c-21-11.09-32.86-37.23-50.53-59.23C100.59,251.35,74.22,274.16,77.31,322.46Z" style="fill:#020100;opacity:0.30000000000000004"></path><path d="M225.55,462.29c-2.5-.92-59-46.1-60.1-49.18-.41-1.17,5.69-9.79,13.35-20,1.66-2.2,3.38-4.47,5.14-6.76,11.43-14.88,23.9-30.41,23.9-30.41l37.9,30.11L220.8,415.65l-5.47,6.49s13.91,27,14.72,30.49S228.05,463.21,225.55,462.29Z" style="fill:#f7a9a0"></path><path d="M225.55,462.29c-2.5-.92-59-46.1-60.1-49.18-.49-1.43,8.61-13.85,18.49-26.75l36.86,29.29-5.47,6.49s13.91,27,14.72,30.49S228.05,463.21,225.55,462.29Z" style="fill:#fff"></path><path d="M225.55,462.29c-2.5-.92-59-46.1-60.1-49.18-.41-1.17,5.69-9.79,13.35-20l36.53,29s13.91,27,14.72,30.49S228.05,463.21,225.55,462.29Z" style="fill:#6FA4CE"></path><path d="M226.54,459.38c-9.29-7.81-47.49-38.41-57.27-45.42-.08-.06-.12,0,0,.06,9,7.94,47.49,38.23,57.19,45.52C226.63,459.69,226.74,459.54,226.54,459.38Z" style="fill:#263238"></path><path d="M228,447.69a9.79,9.79,0,0,0-7.52-2.22,9.44,9.44,0,0,0-6.16,3.37c-.05.06.06.14.11.09a11.28,11.28,0,0,1,13.47-1.12A.08.08,0,0,0,228,447.69Z" style="fill:#263238"></path><path d="M218.26,426c-3.75-3.08-9.22-5.26-14.06-4-.18,0-.12.32,0,.35A67.09,67.09,0,0,1,218,426.54.31.31,0,0,0,218.26,426Z" style="fill:#263238"></path><path d="M220.27,429.5c-3.75-3.08-9.22-5.25-14.05-4-.19.05-.12.32,0,.35A67.19,67.19,0,0,1,220,430,.31.31,0,0,0,220.27,429.5Z" style="fill:#263238"></path><path d="M222.29,433c-3.75-3.09-9.22-5.26-14.06-4-.18,0-.11.31.05.34a66.6,66.6,0,0,1,13.7,4.22A.31.31,0,0,0,222.29,433Z" style="fill:#263238"></path><path d="M224.3,436.47c-3.75-3.09-9.21-5.26-14.05-4-.19,0-.12.31,0,.34A66.88,66.88,0,0,1,224,437,.3.3,0,0,0,224.3,436.47Z" style="fill:#263238"></path><path d="M178.88,406.89c-4.27-3.39-9.54,3.23-5.27,6.63S183.15,410.28,178.88,406.89Z" style="fill:#fff"></path><path d="M230.44,419.18c-.64-3.13-4.31-3.5-6.81-2.8a25.55,25.55,0,0,0-11.2,6.95c-.07.07,0,.15,0,.2a.6.6,0,0,0,.44.85c4.19.29,8.64,1.12,12.8.12C228.12,423.91,231.06,422.14,230.44,419.18Zm-11.09,4.34c-2.07-.09-4.12-.29-6.19-.3a74.81,74.81,0,0,1,6.63-3.91,27.11,27.11,0,0,1,3.43-1.45c1.83-.6,8.08-.79,5.16,3.63C226.77,423.94,221.81,423.63,219.35,423.52Z" style="fill:#263238"></path><path d="M201.88,417.2c2.9,3.15,7.06,4.93,10.71,7a.59.59,0,0,0,.83-.46c.08,0,.16-.05.14-.16a25.37,25.37,0,0,0-5.45-12c-1.68-2-4.94-3.7-7.21-1.47S200.19,415.36,201.88,417.2Zm-.56-4c0-5.3,5.13-1.66,6.31-.15a26.5,26.5,0,0,1,2.05,3.11c1.3,2.23,2.26,4.6,3.33,6.94-1.73-1.14-3.54-2.12-5.3-3.19C205.6,418.64,201.3,416.14,201.32,413.21Z" style="fill:#263238"></path><path d="M284,328.16c-2.6,19.69-51.13,76.54-56.73,83.06L226,412.7l-40.14-30.85.46-.59L221.68,335,116.24,345.58l27.31-30.79s3.25,1.87,10,.89c23.27-3.41,88.46-22.51,100.83-22C270.34,294.32,286.4,310.1,284,328.16Z" style="fill:#37474f"></path><path d="M234.37,317.77a47.13,47.13,0,0,0-3.64,4.67c-1.25,1.64-2.52,3.26-3.77,4.9l0,.05c.22-.48.43-1,.66-1.44.79-1.63,1.42-3.31,2.35-4.87.06-.1-.09-.19-.14-.09-1,1.55-2.07,3-2.89,4.65-.39.77-.75,1.54-1.09,2.33-.19.43-.38.86-.55,1.3-.07.2-.17.42-.23.63-.56.76-1.11,1.53-1.64,2.31-1.19,1.72-2.25,3.54-3.45,5.25-.06.09.08.18.15.09,1.22-1.61,2.58-3.1,3.82-4.7s2.46-3.3,3.64-5,2.29-3.3,3.44-4.94a49.52,49.52,0,0,0,3.47-5.08A.06.06,0,0,0,234.37,317.77Z" style="fill:#263238"></path><path d="M132.19,271.08c5.78,22.67,17.28,49.74,22,54.07,6,5.47,45,14.83,46.89,15,4.8.37,13.55-34.29,8.44-34.9-7.78-.94-36-1.79-37.74-3.49s-14-16.49-26.69-33.15C136.37,257.09,128.6,257,132.19,271.08Z" style="fill:#f7a9a0"></path><path d="M197.21,338.38c.57.27,8.76,4.15,13.8,5.48,3.76,1,14.66,3.55,16.16-.47,1-2.75-5.2-5-9.57-6.71-2.3-.9-5.17-3.22-4.53-4.7,1.11-2.59,7-.16,11,2,7.57,4.16,17.69,11.72,22.16,7.83,1.69-1.47-.38-4-3.36-6.51,4.82,2.86,9.94,5.18,11.88,3.62,1.11-.89,1.14-2.08.47-3.41,1.48.44,2.77.32,3.65-.66,1.51-1.65.7-4-1.05-6.42a1.84,1.84,0,0,0,1.38-1c3.15-5.06-13.55-19-19.24-20.18-16.75-3.56-34.27-2.4-34.27-2.4C199.23,310.26,197.19,338.37,197.21,338.38Z" style="fill:#f7a9a0"></path><path d="M221.32,322.46a28.3,28.3,0,0,1,11.2,4c4.29,2.69,7.17,5.88,10.79,9.08a.1.1,0,0,1-.13.15c-1.72-1.52-8.86-7.22-10.69-8.51a26.94,26.94,0,0,0-11.18-4.66C221.26,322.53,221.27,322.46,221.32,322.46Z" style="fill:#263238"></path><path d="M224.25,315.33a67.48,67.48,0,0,1,13,4.16c4.5,2.16,8.06,5.77,11.57,9.24q3.15,3.12,6.17,6.39c.08.09,0,.24-.13.15q-5.34-5.38-11-10.43a35.65,35.65,0,0,0-12-7.15c-2.53-.89-5.12-1.59-7.7-2.29C224.19,315.39,224.2,315.31,224.25,315.33Z" style="fill:#263238"></path><path d="M228.78,309c4.27.77,8,1.43,11.81,3.61,5.06,2.9,10,7.87,11.72,9.63,1.91,1.94,3.76,4,5.57,6,.08.09-.06.22-.14.13a141.74,141.74,0,0,0-13.28-12.53,28.06,28.06,0,0,0-7.36-4.54,50.71,50.71,0,0,0-8.33-2.25S228.76,309,228.78,309Z" style="fill:#263238"></path><path d="M202.93,303.54l-11,38s-32.46-8.43-38.5-14.65-17.71-38.76-21.29-54.59,4.47-15.62,12.1-5.77,26.62,33.71,27.66,34.21S202.93,303.54,202.93,303.54Z" style="fill:#6FA4CE"></path><path d="M188.43,324.86c1.33-4.48,2.71-8.95,3.87-13.49.67-2.57,1.35-5.15,2-7.73,0-.09-.14-.15-.17-.05-1.52,4.44-3,8.91-4.35,13.42s-2.66,9-3.91,13.48c-.71,2.57-1.34,5.14-1.89,7.75,0,.05.07.08.09,0C185.73,333.87,187.08,329.37,188.43,324.86Z" style="fill:#263238"></path><path d="M189.36,302.77a17.07,17.07,0,0,1-.25,2.57,14.81,14.81,0,0,1-3.36,6.91,11.33,11.33,0,0,1-4.11,3.12,16,16,0,0,1-5,1.24,27.76,27.76,0,0,1-4.37.09H172c-.17,0-.33,0-.5,0-1.71-.12-3.41-.31-5.11-.52a97.85,97.85,0,0,0-10.21-1.05,18.74,18.74,0,0,0-5.07.49,9.27,9.27,0,0,0-3.43,1.62l-.07-.15a9.49,9.49,0,0,1,3.46-1.63,19.09,19.09,0,0,1,5.11-.52,100.1,100.1,0,0,1,10.23,1c1.7.21,3.4.41,5.11.51l.75,0h.3a27.5,27.5,0,0,0,4.06-.11,15.69,15.69,0,0,0,4.92-1.24,10.83,10.83,0,0,0,4-3.05,15.8,15.8,0,0,0,2.6-4.36,14.8,14.8,0,0,0,.94-5,1.71,1.71,0,0,0,0-.32l.27,0C189.37,302.56,189.36,302.67,189.36,302.77Zm-10.19-1.12v-.06l-.25,0s0,.06,0,.09a19.13,19.13,0,0,1-.51,5.06,18.11,18.11,0,0,1-1.93,4.71,18.3,18.3,0,0,1-3.1,4.05c-.36.35-.74.68-1.14,1a2.78,2.78,0,0,1-.27.21,16,16,0,0,1-2.76,1.69,25.61,25.61,0,0,1-4.83,1.69c-3.3.84-6.73,1.33-9.92,2.66a16.15,16.15,0,0,0-3,1.6c0,.05.07.08.08.12a16.92,16.92,0,0,1,3-1.58c3.16-1.31,6.58-1.79,9.89-2.63a25.53,25.53,0,0,0,4.87-1.69,15,15,0,0,0,3-1.85,1.46,1.46,0,0,0,.28-.21c.34-.28.67-.57,1-.88a18.41,18.41,0,0,0,3.14-4.08,18.08,18.08,0,0,0,1.95-4.75A18.51,18.51,0,0,0,179.17,301.65Z" style="fill:#fff"></path><path d="M193,337.77l-1.09,3.78s-32.47-8.44-38.52-14.64-17.7-38.77-21.28-54.6c-2.62-11.57,1-14.58,6.09-11.5C152,279.83,178.09,315.9,193,337.77Z" style="opacity:0.1"></path><path d="M94.92,345.89c.19.18,68.8-14.85,69.44-15.65.89-1.12-11.37-52.72-24.31-68.12-3.24-3.85-13.54-3.58-18.15.3C99.05,281.68,94.27,345.22,94.92,345.89Z" style="fill:#6FA4CE"></path><path d="M116.26,266.31C102,277.26,64.54,321.5,72.37,332s61.56,7,77.24,2.49c4.66-1.35-7.3-31-12.28-32.48-4.14-1.23-27.4,5.09-27.82,3.74-.48-1.52,4.68-11.33,13-29.26C132.08,255.83,122.54,261.48,116.26,266.31Z" style="fill:#f7a9a0"></path><path d="M160.24,296.86c10.75.28,13.47,2,22.66-2.59,6-3,10.54-.44,6.44,5.24-6.7,9.31-20.64,11.86-25.73,11.36Z" style="fill:#f7a9a0"></path><path d="M130.67,302.36s12.88-4.6,24.37-5.44c7.94-.58,25.35.08,38.88,19.61,3.21,4.63,4.5,13.51-3.49,7.85-5.67-4-8.06-8.29-11.79-10,0,0,.3,11.49-4.46,14.52a103.27,103.27,0,0,1-13,7.05,20.81,20.81,0,0,1-1.54-2.32s-4.72,2.41-12.51.35Z" style="fill:#f7a9a0"></path><path d="M162.7,297.57c3.34,2.51,10.32,7.94,14.48,14.37,4.62,7.14,11.61,22.15,6.3,25.51-3.89,2.46-7.06-3-7.06-3s1.58,6.81-2.42,8.26c-3.65,1.33-5.85-3.07-5.85-3.07s.25,4.3-3.51,4.9c-4.52.73-4.3-8.4-9.51-11.62C154,332.17,162.7,297.57,162.7,297.57Z" style="fill:#f7a9a0"></path><path d="M168.82,315.57c2.75,2.87,7.32,11,7.68,18.69,0,.18-.11.28-.16.12a83.51,83.51,0,0,0-7.59-18.77S168.79,315.54,168.82,315.57Z" style="fill:#263238"></path><path d="M161.74,320.45c2.12,2.72,6.46,11.31,6.56,19.12,0,.17-.13.26-.17.1a89.45,89.45,0,0,0-6.45-19.18S161.72,320.41,161.74,320.45Z" style="fill:#263238"></path><path d="M178.66,314.28c3.25,1.58,5.2,3.63,7.76,6.11a47.05,47.05,0,0,0,4,3.52c1.27,1,3.14,2.47,4.82,1.53a2.85,2.85,0,0,0,1.09-2.69,13.76,13.76,0,0,0-1.24-4.21c0-.05.06-.09.09,0a19.64,19.64,0,0,1,1.48,3.81,4.59,4.59,0,0,1-.13,2.72c-.81,1.81-3.08,1.69-4.57.91a15.85,15.85,0,0,1-2.48-1.75c-.75-.62-1.47-1.27-2.18-1.93-1.44-1.37-2.81-2.82-4.24-4.21a45.65,45.65,0,0,0-4.42-3.66A.07.07,0,0,1,178.66,314.28Z" style="fill:#263238"></path><path d="M183.83,327.51a107.7,107.7,0,0,0-5.26-13.16c0-.05.05-.1.09-.05,2.25,3,5.42,10.4,6.07,12.71s1.32,5.2.93,7.57c-.59,3.58-3.08,3.87-4,3.9a4.7,4.7,0,0,1-3-1,9.46,9.46,0,0,1-2.33-3.05c0-.05.05-.11.08-.05,1,1.61,2.84,3.34,4.83,3.41a3.28,3.28,0,0,0,2.41-.83,4.25,4.25,0,0,0,1-2.78A19.83,19.83,0,0,0,183.83,327.51Z" style="fill:#263238"></path><path d="M130.67,302.36l10.79,37.57s-67.17,3.83-70.89-8.37,28.73-52.16,42.19-63.13c15.6-12.72,16.43-7.38,11.36,5.34-5.32,13.32-14.48,32.34-14.48,32.34Z" style="fill:#6FA4CE"></path><path d="M112.73,299.6a1.75,1.75,0,0,0-.11.24c-.4,0-.8,0-1.2,0a16,16,0,0,1-5-1.28,30,30,0,0,1-3.86-2l-.27-.16a4.06,4.06,0,0,1-.41-.25c-1.46-.91-2.86-1.89-4.26-2.9-1.62-1.16-3.23-2.36-4.88-3.5a.79.79,0,0,1,.12-.15c1.65,1.13,3.26,2.33,4.88,3.48,1.4,1,2.8,2,4.25,2.88.2.13.42.26.64.38a1.75,1.75,0,0,0,.27.16,27.36,27.36,0,0,0,3.61,1.86,15.88,15.88,0,0,0,4.92,1.23A11.29,11.29,0,0,0,112.73,299.6ZM122.62,270a16.27,16.27,0,0,0-1.46,2.15,27.1,27.1,0,0,0-2.06,4.72c-.57,1.62-1,3.27-1.6,4.88a32.73,32.73,0,0,1-1.94,4.74,19.18,19.18,0,0,1-2.86,4.21,17.69,17.69,0,0,1-3.94,3.22,18.1,18.1,0,0,1-4.64,2.09,11.32,11.32,0,0,1-1.49.32,1.35,1.35,0,0,1-.34.06,14.57,14.57,0,0,1-3.23.19,25.36,25.36,0,0,1-5-.82c-1.66-.42-3.31-.93-5-1.37a1.34,1.34,0,0,1-.11.14c1.68.46,3.34,1,5,1.4a24.27,24.27,0,0,0,5.08.83,15.86,15.86,0,0,0,3.51-.21,1.86,1.86,0,0,0,.34-.06,12.17,12.17,0,0,0,1.27-.29,18.37,18.37,0,0,0,4.7-2.1,17.86,17.86,0,0,0,4-3.26,19.23,19.23,0,0,0,2.91-4.24,35,35,0,0,0,2-4.76c.55-1.63,1-3.28,1.62-4.89a27,27,0,0,1,2-4.67,14.83,14.83,0,0,1,3.21-3.92,12,12,0,0,1,1.8-1.31c0-.14.06-.25.09-.37a14.26,14.26,0,0,0-2.06,1.47A15,15,0,0,0,122.62,270Zm6.12,32.71-.08,0a18.62,18.62,0,0,1,.14,2.25c0,.47,0,.93-.05,1.41,0,0,0,.11,0,.17a20.69,20.69,0,0,1-.59,3.49,18.53,18.53,0,0,1-1.93,4.72,16.64,16.64,0,0,1-3.23,4c-2.52,2.31-5.56,3.95-8.38,5.89a25,25,0,0,0-4,3.26,17,17,0,0,0-2.17,2.76l-.18.31a12.47,12.47,0,0,0-.61,1.14,18.4,18.4,0,0,0-1.54,4.92,18.64,18.64,0,0,0-.29,3.26h.22a19.48,19.48,0,0,1,.28-3.23,18.09,18.09,0,0,1,1.5-4.87,13,13,0,0,1,.73-1.32,1.6,1.6,0,0,1,.19-.29,15.82,15.82,0,0,1,2-2.55,25.6,25.6,0,0,1,3.94-3.25c2.82-1.94,5.87-3.57,8.4-5.92a17.29,17.29,0,0,0,3.24-4,18.65,18.65,0,0,0,1.93-4.77,20.21,20.21,0,0,0,.56-3.38c0-.06,0-.12,0-.17,0-.52.05-1,.05-1.55A19.41,19.41,0,0,0,128.74,302.7Zm4.2,12.85a13.16,13.16,0,0,0-1.59-4.88c-.75-1.44-1.64-2.78-2.5-4.14l-.1-.14a33.61,33.61,0,0,1-1.91-3.35h-.07a32.75,32.75,0,0,0,2,3.51l.09.14c.83,1.32,1.69,2.64,2.41,4a13.22,13.22,0,0,1,1.55,4.83,10.28,10.28,0,0,1-.79,5,9,9,0,0,1-3.26,3.83,19.06,19.06,0,0,1-4.59,2.21,101.72,101.72,0,0,1-9.93,2.54c-1.67.39-3.35.79-5,1.28l-.48.15-.3.08a31.16,31.16,0,0,0-4,1.58,15.89,15.89,0,0,0-4.25,2.91,11.18,11.18,0,0,0-2.79,4.33c0,.11-.08.21-.11.32l.27,0a1.38,1.38,0,0,1,.08-.27,11,11,0,0,1,2.72-4.24,15.59,15.59,0,0,1,4.18-2.86,27.1,27.1,0,0,1,3.77-1.49,1.11,1.11,0,0,1,.29-.1c.24-.09.48-.16.73-.23,1.63-.49,3.29-.9,5-1.29a97.66,97.66,0,0,0,10-2.57,19.45,19.45,0,0,0,4.63-2.25,9.16,9.16,0,0,0,3.31-3.9A10.56,10.56,0,0,0,132.94,315.55Z" style="fill:#fff"></path><path d="M88.43,312.12a76.35,76.35,0,0,1,10.36-4,75,75,0,0,1,10.71-2.37c2.06-.32,4.14-.55,6.21-.78a.05.05,0,1,1,0,.1,95.51,95.51,0,0,0-10.8,2.27q-5.3,1.38-10.55,3c-2,.59-3.93,1.28-5.89,1.94A.07.07,0,1,1,88.43,312.12Z" style="fill:#263238"></path><path d="M130.51,302.23c-.34,0-19,2.95-19.64,3.12.11-.25,4.85-9.15,5.55-10.45l.21-.39c.42-.56.85-1.12,1.25-1.7.52-.74,1-1.48,1.54-2.23a0,0,0,0,0,0,0c-.54.72-1.09,1.43-1.62,2.16-.25.33-.49.67-.73,1,.47-.92.93-1.85,1.4-2.78.73-1.48,1.42-3,2.1-4.5,0-.05,0-.07-.08,0-1.39,2.59-2.86,5.14-4.27,7.72s-6.71,12.1-6.69,12.09,20.65-3.65,21-3.75A.13.13,0,0,0,130.51,302.23Z" style="fill:#263238"></path><path d="M127.94,325.15c-1.17-4.19-2.32-8.39-3.66-12.54-.75-2.35-1.5-4.71-2.28-7.06,0-.09-.19-.05-.16,0,1,4.25,2,8.51,3.25,12.72s2.38,8.37,3.64,12.54c.72,2.37,1.5,4.71,2.36,7,0,.05.1,0,.09,0C130.3,333.57,129.13,329.36,127.94,325.15Z" style="fill:#263238"></path><path d="M142.2,340.61c-.47-1.18-1-2.86-1.55-4-.14-.3-.36-.28-.26,0,.33,1.06.56,2.22.88,3.3-.94,0-1.88,0-2.82.08l-3.25.14c-2.13.08-4.26.15-6.39.19q-6.47.12-12.93,0A248.53,248.53,0,0,1,90,338.47c-2.4-.31-4.8-.66-7.18-1.09a70.36,70.36,0,0,1-7-1.5.06.06,0,0,0,0,.11,40.62,40.62,0,0,0,6,1.81c2.14.46,4.3.87,6.46,1.2,4.32.66,8.66,1.1,13,1.41q12.94.94,25.94.78c2.43,0,4.85-.08,7.27-.16,1.22,0,2.45-.08,3.67-.15S142.28,340.81,142.2,340.61Z" style="fill:#263238"></path><rect x="158.51" y="347.91" width="79.32" height="3.55" style="fill:#c7c7c7"></rect><polygon points="237.83 347.91 237.83 351.47 183.91 351.47 186.63 347.91 237.83 347.91" style="fill:#a6a6a6"></polygon><polygon points="190.05 351.47 267.35 351.47 273.79 298.97 196.49 298.97 190.05 351.47" style="fill:#c7c7c7"></polygon><path d="M227.22,325.22a4.6,4.6,0,0,0,4.62,4.7,4.8,4.8,0,0,0,4.79-4.7,4.62,4.62,0,0,0-4.63-4.71A4.8,4.8,0,0,0,227.22,325.22Z" style="fill:#fff"></path><path d="M136.8,274c-3.14,0-9.31-6.28-11.57-11.36-.15-.35.65-3.82,1.43-8.08.46-2.59.92-5.48,1.14-8.15l16.41,5.47A42.58,42.58,0,0,0,141.73,262a5.79,5.79,0,0,0,0,1.11,1.07,1.07,0,0,1,0,.18C141.93,265.4,141.72,274.08,136.8,274Z" style="fill:#f7a9a0"></path><path d="M141.75,263.11a.9.9,0,0,1,0,.18,10.37,10.37,0,0,1-1.74-.05c-9.5-1-10.86-12.81-11-16.43l15.22,5.07A43.11,43.11,0,0,0,141.73,262,6.7,6.7,0,0,0,141.75,263.11Z" style="fill:#263238"></path><path d="M154.42,224.52c.94.21,3.73,7.9,3.1,11.17s-3.12,9.55-4.09,9.47S153.7,224.35,154.42,224.52Z" style="fill:#263238"></path><path d="M130,225.51c-3.1,5.4-3.86,22.88-.58,27.57,4.75,6.79,14.44,9.54,20.69,3.39,6.06-6,6.65-28.76,2.81-33.21C147.26,216.7,134.58,217.52,130,225.51Z" style="fill:#f7a9a0"></path><path d="M141.51,237.63a12.94,12.94,0,0,0,1.51-.41,2.54,2.54,0,0,0,1.46-.7.8.8,0,0,0-.06-1,2,2,0,0,0-2-.36,3,3,0,0,0-1.78,1.14A.86.86,0,0,0,141.51,237.63Z" style="fill:#263238"></path><path d="M153.38,238.63a15,15,0,0,1-1.47-.5,2.46,2.46,0,0,1-1.41-.81.78.78,0,0,1,.12-1,2,2,0,0,1,2-.23,3,3,0,0,1,1.71,1.25A.86.86,0,0,1,153.38,238.63Z" style="fill:#263238"></path><path d="M141.32,251.36c.26.29.51.69.94.76a3.13,3.13,0,0,0,1.28-.2s.08,0,.05.06a1.58,1.58,0,0,1-1.54.53,1.26,1.26,0,0,1-.85-1.11C141.19,251.33,141.28,251.31,141.32,251.36Z" style="fill:#263238"></path><path d="M142.82,247.93a4,4,0,0,0,2.54,2,4.92,4.92,0,0,0,1.43.17.87.87,0,0,0,.28,0,1.23,1.23,0,0,0,.26,0,.28.28,0,0,0,.25-.24h0a.49.49,0,0,0,0-.12h0v-.1c.09-.91.11-2.29.11-2.29.32.19,1.94,1.08,2,.6a60.47,60.47,0,0,0-.64-12.23.11.11,0,0,0-.22,0c-.2,3.77.25,7.56.11,11.36a7.18,7.18,0,0,0-1.85-.72c-.13,0,0,2.67-.06,3.08a.16.16,0,0,1,0,0,5.57,5.57,0,0,1-4-1.6C142.85,247.76,142.76,247.83,142.82,247.93Z" style="fill:#263238"></path><path d="M146.29,249.59a4.75,4.75,0,0,1-2,1.33,2.14,2.14,0,0,1-1.3,0c-.92-.32-.88-1.18-.65-1.9a4.93,4.93,0,0,1,.5-1.1A6.2,6.2,0,0,0,146.29,249.59Z" style="fill:#263238"></path><path d="M144.28,250.92a2.14,2.14,0,0,1-1.3,0c-.92-.32-.88-1.18-.65-1.9A2.2,2.2,0,0,1,144.28,250.92Z" style="fill:#ff9abb"></path><path d="M144,240.7s-.1,0-.1.09c-.09,1.17-.39,2.49-1.48,2.76,0,0,0,.07,0,.07C143.7,243.58,144.07,241.82,144,240.7Z" style="fill:#263238"></path><path d="M143.06,239.37c-1.86-.34-2.41,3.4-.68,3.71S144.61,239.66,143.06,239.37Z" style="fill:#263238"></path><path d="M150.77,241.23s.09.07.08.12c-.22,1.15-.27,2.5.72,3.05,0,0,0,.07,0,.06C150.3,244.09,150.39,242.29,150.77,241.23Z" style="fill:#263238"></path><path d="M152,240.18c1.89.15,1.46,3.9-.29,3.77S150.42,240.06,152,240.18Z" style="fill:#263238"></path><path d="M129,241c3,.69,4.91-2.44,6.6-7,1-2.65,1-8.19,1-8.19s7.17,4.68,11.58,4.92,8.66-3,8.94-6.44c.25-3-4.16-7.46-10.62-8.66-4.5-.83-12.68,1.72-16.75,6.12,0,0-6.09,1.92-5.85,6.35S125.66,240.25,129,241Z" style="fill:#263238"></path><path d="M129.29,240.73c3.84,1.4,6.77-4.27,7.31-7.36s-.22-6.65-.34-9.87c0,0,0,0,0,0,.8,4,1.56,9-.3,12.86-1.18,2.4-3.61,6.29-6.78,4.59C129.1,240.88,129.16,240.68,129.29,240.73Z" style="fill:#263238"></path><path d="M123.29,226.74c.93-2.57,4.33-4.76,7-5,0,0,0,0,0,0-3.19.67-7.21,3.68-6.75,7.22.37,2.83,1.18,6.59,2.73,9a.06.06,0,0,1-.1.06c-1.26-1.66-1.62-3.65-2.12-5.64C123.57,230.68,122.64,228.53,123.29,226.74Z" style="fill:#263238"></path><path d="M129.19,222.14c4.3-4.63,12.85-9.37,19.23-6.87a0,0,0,0,1,0,0c-6.86-2.06-14,3-19,7.08C129.24,222.5,129.06,222.27,129.19,222.14Z" style="fill:#263238"></path><path d="M140.14,246.48a5.45,5.45,0,1,1,6.56-5.56h0a5.45,5.45,0,0,1-6.56,5.56Zm2.09-9.94a4.55,4.55,0,0,0-1.17-.1,4.73,4.73,0,1,0,1.17.1Z" style="fill:#455a64"></path><path d="M152.34,247.88c-2-.53-3.31-3.07-2.91-5.89a6.48,6.48,0,0,1,1.66-3.61,3.63,3.63,0,0,1,3.11-1.22,3.58,3.58,0,0,1,2.64,2,6.44,6.44,0,0,1,.62,3.93c-.42,3-2.56,5.14-4.77,4.83Zm2-9.94-.28-.06a2.89,2.89,0,0,0-2.47,1,5.74,5.74,0,0,0-1.47,3.21c-.36,2.57.82,4.87,2.64,5.13s3.58-1.64,4-4.21a5.85,5.85,0,0,0-.54-3.49A3,3,0,0,0,154.37,237.94Z" style="fill:#455a64"></path><path d="M146.46,241.54l-.42-.6c.89-.62,2.88-1.37,4.07.16l-.57.45C148.47,240.17,146.54,241.48,146.46,241.54Z" style="fill:#455a64"></path><path d="M122.17,240.74l-.61-.39c.18-.29,1.83-2.8,3.47-2.92s11.17,1.69,11.58,1.77l-.13.71c-2.77-.51-10.21-1.83-11.4-1.75S122.61,240.05,122.17,240.74Z" style="fill:#455a64"></path><path d="M131.74,240.31s-2.69-6.24-5.44-5.39-1.53,9.34,1.15,11a3,3,0,0,0,4.29-.77Z" style="fill:#f7a9a0"></path><path d="M126.71,237.34a0,0,0,0,0,0,.08c1.87,1.24,2.55,3.35,2.89,5.47a1.67,1.67,0,0,0-2.35-1c-.06,0,0,.13,0,.13a1.84,1.84,0,0,1,1.86,1,8.91,8.91,0,0,1,.63,1.82c.05.2.4.17.38,0v-.05C130.71,242.23,129.44,238.18,126.71,237.34Z" style="fill:#263238"></path><path d="M372.09,411.09c-.92,2.5-46.28,58.88-49.37,59.94-1.17.4-9.77-5.72-20-13.42-2.19-1.66-4.45-3.39-6.74-5.16-14.85-11.48-30.33-24-30.33-24l30.23-37.81,29.5,25,6.48,5.49s27-13.82,30.54-14.61S373,408.59,372.09,411.09Z" style="fill:#f7a9a0"></path><path d="M372.09,411.09c-.92,2.5-46.28,58.88-49.37,59.94-1.43.49-13.82-8.66-26.69-18.58l29.4-36.77,6.48,5.49s27-13.82,30.54-14.61S373,408.59,372.09,411.09Z" style="fill:#fff"></path><path d="M372.09,411.09c-.92,2.5-46.28,58.88-49.37,59.94-1.17.4-9.77-5.72-20-13.42l29.14-36.44s27-13.82,30.54-14.61S373,408.59,372.09,411.09Z" style="fill:#6FA4CE"></path><path d="M369.19,410.08c-7.84,9.27-38.57,47.37-45.61,57.13-.06.08,0,.12.06,0,8-9,38.38-47.36,45.7-57C369.49,410,369.35,409.89,369.19,410.08Z" style="fill:#263238"></path><path d="M357.5,408.55a9.77,9.77,0,0,0-2.24,7.51,9.41,9.41,0,0,0,3.35,6.17c.06,0,.14-.06.09-.11a11.24,11.24,0,0,1-1.08-13.47A.08.08,0,0,0,357.5,408.55Z" style="fill:#263238"></path><path d="M335.8,418.26c-3.09,3.74-5.29,9.2-4.08,14,0,.19.31.12.34,0a67.24,67.24,0,0,1,4.26-13.69A.31.31,0,0,0,335.8,418.26Z" style="fill:#263238"></path><path d="M339.29,416.26c-3.1,3.74-5.29,9.2-4.09,14,.05.19.32.12.35,0a67.05,67.05,0,0,1,4.26-13.69A.31.31,0,0,0,339.29,416.26Z" style="fill:#263238"></path><path d="M342.78,414.25c-3.1,3.74-5.29,9.2-4.09,14,.05.19.31.12.35,0a67.44,67.44,0,0,1,4.26-13.69A.31.31,0,0,0,342.78,414.25Z" style="fill:#263238"></path><path d="M346.27,412.25c-3.1,3.74-5.29,9.2-4.09,14,.05.19.31.12.34,0a67.05,67.05,0,0,1,4.26-13.69A.3.3,0,0,0,346.27,412.25Z" style="fill:#263238"></path><path d="M316.54,457.58c-3.4,4.25,3.2,9.55,6.61,5.28S320,453.32,316.54,457.58Z" style="fill:#fff"></path><path d="M329,406.05c-3.13.64-3.52,4.3-2.82,6.81a25.5,25.5,0,0,0,6.91,11.22c.07.07.15,0,.2,0a.59.59,0,0,0,.85-.44c.31-4.19,1.15-8.63.16-12.79C333.72,408.39,332,405.45,329,406.05Zm4.3,11.11c-.1,2.07-.3,4.12-.32,6.18a75.8,75.8,0,0,1-3.89-6.64,28.59,28.59,0,0,1-1.44-3.43c-.59-1.83-.76-8.09,3.66-5.15C333.74,409.74,333.42,414.7,333.3,417.16Z" style="fill:#263238"></path><path d="M326.93,434.6c3.15-2.88,4.95-7,7.05-10.67a.59.59,0,0,0-.46-.84c0-.08,0-.16-.15-.14a25.45,25.45,0,0,0-12,5.41c-2,1.68-3.71,4.93-1.48,7.21S325.09,436.29,326.93,434.6Zm-4,.56c-5.31-.05-1.65-5.13-.14-6.32a27.78,27.78,0,0,1,3.12-2,74.88,74.88,0,0,1,6.95-3.31c-1.14,1.72-2.13,3.53-3.2,5.29C328.38,430.9,325.86,435.18,322.94,435.16Z" style="fill:#263238"></path><path d="M323.85,410l-31.46,42.45L186.23,378.76,176,371.65s-2.9,2-7.26,4.36c-6.06,3.35-14.95,7.6-22.8,8.75-13.18,2-35.19,1.75-46.3-13.11-9.35-12.51-4.27-28.83-4.27-28.83l14.47-6.21s34.24-28.53,56.43-29.39c9.42-.38,23.14,6.76,35.85,14.22S323.85,410,323.85,410Z" style="fill:#37474f"></path><path d="M176,371.65s-2.9,2-7.26,4.36c-7.72-9.23-24-26-24.55-26.6Z" style="fill:#263238"></path><path d="M122.38,327.06c-2,1.42-4,2.93-6,4.39s-4,2.78-5.93,4.35-3.74,3.3-5.55,5q-1.3,1.24-2.58,2.52A24.88,24.88,0,0,0,99.81,346c-.07.09.06.2.15.14a26.42,26.42,0,0,0,2.74-2.23c1-.8,1.91-1.62,2.86-2.43,1.84-1.57,3.72-3.09,5.55-4.66s3.52-3.26,5.33-4.84,4-3.27,6-4.87C122.46,327.09,122.42,327,122.38,327.06Z" style="fill:#263238"></path><path d="M316.47,408.46c-2.05,2.2-3.94,4.57-5.84,6.9s-3.81,4.68-5.7,7c-3.77,4.72-7.57,9.41-11.28,14.17-2,2.62-4,5.26-5.94,8-.09.12.1.26.2.15,4.06-4.46,7.77-9.22,11.54-13.93s7.53-9.45,11.23-14.22c2-2.62,4.11-5.22,6-8C316.73,408.48,316.56,408.36,316.47,408.46Z" style="fill:#263238"></path><path d="M229.34,408.89c-5.28-4.16-10.76-8.09-16.24-12s-10.89-7.78-16.42-11.55c-1.59-1.08-3.19-2.14-4.79-3.2s-3.26-2-4.83-3.15c-.09-.06-.17.09-.08.15,1.44,1,2.79,2.19,4.21,3.26s2.68,2.05,4,3.06c2.65,2,5.33,3.89,8,5.82,5.42,3.92,10.88,7.8,16.4,11.58,3.14,2.15,6.26,4.31,9.46,6.35C229.29,409.33,229.52,409,229.34,408.89Z" style="fill:#263238"></path><path d="M263.29,365.09c-4.88-4-10.11-7.68-15.23-11.42s-10.32-7.61-15.52-11.36l-15.46-11.18c-5-3.61-10-7.28-15.25-10.48-2.88-1.75-5.85-3.37-8.89-4.83a58.14,58.14,0,0,0-9.19-3.76.09.09,0,0,0-.07.16c2.61,1.45,5.34,2.68,8,4.08s5.16,2.84,7.69,4.37c5.23,3.18,10.18,6.78,15.15,10.36,10.32,7.42,20.62,14.87,31,22.19,5.82,4.1,11.52,8.42,17.56,12.19C263.25,365.52,263.46,365.23,263.29,365.09Z" style="fill:#263238"></path></g><g id="freepik--Plant--inject-61"><path d="M412.92,360.13s-9.14-14-29.58-11.29c-19.44,2.59-31.52,36.63-12.7,42.63s18.49-26.6,26-31.42C402.18,356.52,409.49,358.09,412.92,360.13Z" style="fill:#6FA4CE"></path><path d="M366.07,366.42a39.6,39.6,0,0,1,4.43-2.77,18.1,18.1,0,0,1,4.6-1.77,26.11,26.11,0,0,1,2.93-3.11,25.61,25.61,0,0,1,6.5-4.24c-.2,0-.39-.08-.59-.1a31,31,0,0,0-3.19-.27,17.87,17.87,0,0,0-6.32.95.09.09,0,0,1-.06-.18,28,28,0,0,1,6.34-1.27,17.45,17.45,0,0,1,3.15,0c.56.05,1.12.15,1.67.25l.32.06a27.23,27.23,0,0,1,6-1.58l-.54-.2a27.29,27.29,0,0,0-2.92-.77,23.25,23.25,0,0,0-6-.47c-.12,0-.14-.19,0-.19a38.47,38.47,0,0,1,6.07.32,25.5,25.5,0,0,1,5,1.13,28.34,28.34,0,0,1,3.69-.07c7,.37,14.37,3.7,18.12,9.84s3.87,13.88,4,20.88a155.5,155.5,0,0,1-2,29.16c-.1.57-.9.39-.86-.16.51-8.25,1-16.5,1-24.77,0-3.83,0-7.68-.32-11.5a33.63,33.63,0,0,0-1.87-9.62,17.16,17.16,0,0,0-6.07-7.9,23,23,0,0,0-9.28-3.85,26,26,0,0,0-9.06,0,5.94,5.94,0,0,1-.12,1.78,9.79,9.79,0,0,1-.64,2.14,11,11,0,0,1-1,1.87c-.43.65-.95,1.22-1.43,1.84-.08.09-.23,0-.15-.13a9,9,0,0,0,1.93-3.8,15.29,15.29,0,0,0,.43-2c.08-.52.08-1,.15-1.55a26.76,26.76,0,0,0-9.17,3.78c-.52.35-1,.71-1.53,1.09a10.14,10.14,0,0,1,1.5,2.25,20.33,20.33,0,0,1,1.48,3.34,26.94,26.94,0,0,1,1.19,7.13c0,.13-.19.14-.19,0a20.35,20.35,0,0,0-1.65-6.81,26.83,26.83,0,0,0-1.5-3.1c-.29-.51-.6-1-.92-1.52-.17-.27-.36-.54-.52-.82a27.65,27.65,0,0,0-6.43,7.45l0,0a14,14,0,0,1,2,3.59,31.15,31.15,0,0,1,1.49,4.19,68.1,68.1,0,0,1,1.62,8.38c0,.12-.18.14-.19,0a34.55,34.55,0,0,0-2.08-8.31c-.48-1.31-1-2.6-1.54-3.88a33.74,33.74,0,0,1-1.55-3.68,25.72,25.72,0,0,0-3.16,9.05.1.1,0,0,1-.19,0,32.44,32.44,0,0,1,5.84-13.8c-1.28.4-2.55.79-3.79,1.31a21.22,21.22,0,0,0-4.44,2.53C366.09,366.66,366,366.5,366.07,366.42Z" style="fill:#263238"></path><path d="M380.68,368.55c.41,2,1,4,1.34,6.07a23,23,0,0,1,.33,6c0,.05-.1.05-.1,0a57.28,57.28,0,0,0-1.76-12A.1.1,0,1,1,380.68,368.55Z" style="fill:#263238"></path><path d="M368.47,362.45a11.12,11.12,0,0,1,2.83-1.64,19.11,19.11,0,0,1,3.17-.8c.12,0,.14.18,0,.2a11.76,11.76,0,0,0-3.06.93,23.26,23.26,0,0,0-2.88,1.41A.06.06,0,1,1,368.47,362.45Z" style="fill:#263238"></path><path d="M403,343.86s-1.93-23.52-19.41-31.14c-14.6-6.37-22.95,10-12.63,20.08C379.34,340.92,392.72,337.26,403,343.86Z" style="fill:#6FA4CE"></path><path d="M374.22,317.27A73.54,73.54,0,0,1,382,321a58,58,0,0,1,6,4c-.29-.59-.54-1.22-.83-1.8-.46-.9-.95-1.79-1.49-2.65a24.94,24.94,0,0,0-3.85-4.88c-.09-.08.05-.22.14-.13a38.78,38.78,0,0,1,4.05,4.72,26.91,26.91,0,0,1,1.66,2.66,10.56,10.56,0,0,1,1.18,2.71l.19.14a56.58,56.58,0,0,1,8.35,8.17c-.05-.24-.1-.47-.16-.68-.32-1.15-.68-2.28-1.06-3.42a29.14,29.14,0,0,0-3.15-6.85c-.07-.11.1-.2.16-.1a53.57,53.57,0,0,1,3.66,6.69,25.6,25.6,0,0,1,1.21,3.48,14.82,14.82,0,0,1,.57,2.36c.76,1,1.51,1.94,2.22,2.94,7.5,10.69,11.27,23.61,12.17,36.54a111.87,111.87,0,0,1,.2,11.58,71.82,71.82,0,0,1-1,11.63c-.05.24-.43.17-.42-.07.09-3.4.44-6.78.5-10.18a99.41,99.41,0,0,0-.33-10.21,94.68,94.68,0,0,0-3.81-20,71.4,71.4,0,0,0-8.89-18.81c-.73-.14-1.46-.34-2.19-.53s-1.74-.45-2.61-.69a26.42,26.42,0,0,1-4.88-1.79c-.11,0,0-.23.1-.16a15.71,15.71,0,0,0,4.95,1.7c1.36.28,2.79.45,4.16.77a64.24,64.24,0,0,0-4.07-5.34,30.24,30.24,0,0,1-9.94-.75,39,39,0,0,1-5.09-1.58c-1.76-.68-3.41-1.54-5.14-2.27a.09.09,0,1,1,.08-.17,29.24,29.24,0,0,0,10.08,3.3,62.16,62.16,0,0,0,9.43.78c-1.24-1.42-2.52-2.81-3.89-4.12-4.59-4.37-10.05-8.39-16.1-10.48C374.05,317.42,374.11,317.23,374.22,317.27Z" style="fill:#263238"></path><path d="M388.45,317.35a26.62,26.62,0,0,1,2.14,3.13,17.23,17.23,0,0,1,1.54,3.65s-.05.06-.07,0c-.58-1.15-1.08-2.35-1.67-3.49a17.24,17.24,0,0,0-2.08-3.18C388.23,317.38,388.37,317.25,388.45,317.35Z" style="fill:#263238"></path><path d="M372.19,325.17a17.84,17.84,0,0,0,3.58,1.5,32.9,32.9,0,0,0,3.66,1c.05,0,0,.11,0,.1a17.36,17.36,0,0,1-3.78-.83,30.3,30.3,0,0,1-3.54-1.58C372,325.28,372.08,325.11,372.19,325.17Z" style="fill:#263238"></path><path d="M415.65,340.39c.11,1,2.64-8.54,17.43-17,13.42-7.7,29.44-27.74,16.28-40.39C438.74,272.76,410.75,295,415.65,340.39Z" style="fill:#6FA4CE"></path><path d="M405.48,395.16a261.55,261.55,0,0,1,2.34-29.72,133.53,133.53,0,0,1,6.25-26.61c1.1-3.1,2.35-6.16,3.72-9.17a19.65,19.65,0,0,1,.06-3.52c.07-1.51.2-3,.34-4.51s.29-3,.47-4.5.5-3,.56-4.48a.1.1,0,1,1,.19,0,31.52,31.52,0,0,0-.53,4.76c-.11,1.45-.2,2.9-.24,4.35s0,2.91,0,4.37c0,.52,0,1.08,0,1.64q2.09-4.41,4.49-8.65c-1-6.13.3-12.53,1.55-18.52a.09.09,0,0,1,.18.05,52.24,52.24,0,0,0-1,9.5c-.06,2.52.06,5,.07,7.55.36-.6.71-1.21,1.07-1.8,1.92-3.13,4-6.2,6.14-9.18a14.49,14.49,0,0,1,.15-4.36,32.67,32.67,0,0,1,1.07-4.78q.71-2.34,1.63-4.61c.64-1.55,1.5-3,2.11-4.58.06-.13.25-.05.18.07a22.69,22.69,0,0,0-1.85,4.64,41,41,0,0,0-1.21,4.6c-.31,1.56-.57,3.11-.79,4.69-.14,1-.24,2.11-.41,3.17a112.2,112.2,0,0,1,10.35-12c.08-.09.21,0,.13.14a136.09,136.09,0,0,0-15,20.44L427,315c.82-.51,1.75-.92,2.52-1.35l4.31-2.36q2.1-1.14,4.19-2.29c.71-.4,1.42-.81,2.15-1.19a16.45,16.45,0,0,0,2.5-1.39c.12-.08.24.09.12.16-1.42.78-2.68,1.94-4.06,2.82s-2.78,1.73-4.22,2.53c-2.62,1.46-5.48,2.52-8.06,4-1.8,3.14-3.45,6.36-5,9.64,1.57-1,3.17-2,4.8-2.87,1.05-.59,2.1-1.17,3.16-1.73a15.55,15.55,0,0,0,3-1.8c.09-.08.22.06.13.14a27.62,27.62,0,0,1-5.68,3.95c-1.9,1.11-3.81,2.19-5.79,3.15q-2.37,5.21-4.28,10.58c-6.22,17.62-8.5,36.32-9.6,54.89-.32,5.54-.49,11.07-.56,16.62s.22,11.07.21,16.6c0,.17-.27.21-.29,0-.66-4.91-.78-9.91-1-14.85S405.36,400.19,405.48,395.16Z" style="fill:#263238"></path><path d="M432.33,315.4a70.21,70.21,0,0,0,7.85-4.06,83.79,83.79,0,0,0,7.46-4.73s.09,0,.05.07a61.16,61.16,0,0,1-7.16,5,69.38,69.38,0,0,1-8.11,3.89C432.31,315.62,432.22,315.45,432.33,315.4Z" style="fill:#263238"></path><path d="M428.05,295.49c.22-.86.49-1.7.78-2.54a.08.08,0,0,1,0-.1c.19-.48.38-1,.58-1.42a.54.54,0,0,1,.07-.17c0-.09.07-.18.11-.27s.06,0,.05,0-.1.33-.15.49a1.38,1.38,0,0,1-.08.27,70.19,70.19,0,0,0-2.19,10c0,.1-.18.11-.17,0A33.68,33.68,0,0,1,428.05,295.49Z" style="fill:#263238"></path><path d="M413,365.85c5.15-16,16.8-25.5,31.76-23.3S464.8,364.45,454.8,371s-22.82-6.65-28.92-8.88S413,365.85,413,365.85Z" style="fill:#6FA4CE"></path><path d="M411.63,406.7c-.22-1.81-.41-3.62-.6-5.44q-.58-5.43-1.16-10.86c-.7-6.62-.91-13.19.95-19.65a29.93,29.93,0,0,1,9.66-15,24.38,24.38,0,0,1,5.69-3.49,14.43,14.43,0,0,1,6.53-4.9,29.22,29.22,0,0,1,10.07-1.69c.12,0,.15.18,0,.19a24.51,24.51,0,0,0-9.46,2A20.27,20.27,0,0,0,429.7,350a16.85,16.85,0,0,0-2,1.73,20.86,20.86,0,0,1,8.79-1.17,19.22,19.22,0,0,1,3.19.57,8.88,8.88,0,0,1,2.36-.54,14,14,0,0,1,3.17,0,23.62,23.62,0,0,1,6.28,1.73.1.1,0,0,1-.08.18,22.16,22.16,0,0,0-6.07-1.35,19.16,19.16,0,0,0-3,0,13.43,13.43,0,0,0-1.65.25,19.26,19.26,0,0,1,10.61,7.92c.07.11-.09.22-.15.12a17.65,17.65,0,0,0-13.19-7.8c-.33,0-.66,0-1-.05a13,13,0,0,1,.36,1.43c.2.71.43,1.42.68,2.12a37.19,37.19,0,0,0,1.79,4.21,33.26,33.26,0,0,0,2.35,4,20.28,20.28,0,0,0,3,3.76.1.1,0,1,1-.14.13c-1-1.23-2.23-2.33-3.22-3.62a31,31,0,0,1-2.54-3.9,27.63,27.63,0,0,1-1.92-4.31c-.28-.78-.52-1.58-.73-2.38a5.65,5.65,0,0,1-.3-1.47,19.72,19.72,0,0,0-5.12.62c1.15,3.48,2.37,7.1,4.81,9.92.08.09-.08.22-.15.12a42.11,42.11,0,0,1-3.2-4.76,19.37,19.37,0,0,1-2-5.14,23.81,23.81,0,0,0-8,4,28.16,28.16,0,0,0-9.47,13.88,46.56,46.56,0,0,0-1.65,18.19c.61,7.72,1.61,15.43,1.93,23.17,0,.5-.74.78-.92.23A26.47,26.47,0,0,1,411.63,406.7Z" style="fill:#263238"></path><path d="M421.34,354.44a8.66,8.66,0,0,1,1.44-1.76c.53-.58,1.07-1.15,1.65-1.67a13.65,13.65,0,0,1,3.86-2.51.1.1,0,0,1,.08.18,10.85,10.85,0,0,0-3.8,2.59c-.55.53-1.06,1.09-1.56,1.67a11.05,11.05,0,0,1-1.47,1.66A.14.14,0,0,1,421.34,354.44Z" style="fill:#263238"></path><path d="M445.36,356.55a46.13,46.13,0,0,1,4,3.94,27.08,27.08,0,0,1,3.18,4.57c0,.05-.05.09-.08.05a60.13,60.13,0,0,0-7.19-8.41C445.15,356.62,445.27,356.47,445.36,356.55Z" style="fill:#263238"></path><path d="M429.48,357.3a10.56,10.56,0,0,0,1.21,2.59,17.54,17.54,0,0,0,1.73,2.21s0,.11-.08.07a9.9,9.9,0,0,1-3-4.79C429.27,357.26,429.44,357.19,429.48,357.3Z" style="fill:#263238"></path><polygon points="389.86 398.73 390.91 411.23 394.14 449.36 428.73 449.36 431.96 411.23 433.01 398.73 389.86 398.73" style="fill:#455a64"></polygon><polygon points="389.86 398.73 390.91 411.23 431.96 411.23 433.01 398.73 389.86 398.73" style="fill:#263238"></polygon><rect x="386.46" y="393.71" width="49.94" height="11.99" transform="translate(822.87 799.42) rotate(180)" style="fill:#455a64"></rect></g></svg>
